<svg xmlns="http://www.w3.org/2000/svg" version="1.1" xmlns:xlink="http://www.w3.org/1999/xlink" xmlns:svgjs="http://svgjs.com/svgjs" width="2000" height="1500" preserveAspectRatio="none" viewBox="0 0 2000 1500"><g mask="url(&quot;#SvgjsMask1390&quot;)" fill="none"><rect width="2000" height="1500" x="0" y="0" fill="url(#SvgjsLinearGradient1391)"></rect><path d="M2000 0L1499.57 0L2000 245.52z" fill="rgba(255, 255, 255, .1)"></path><path d="M1499.57 0L2000 245.52L2000 291.41L701.3399999999999 0z" fill="rgba(255, 255, 255, .075)"></path><path d="M701.3399999999999 0L2000 291.41L2000 984.1600000000001L449.67999999999995 0z" fill="rgba(255, 255, 255, .05)"></path><path d="M449.67999999999984 0L2000 984.1600000000001L2000 1241.8500000000001L442.7599999999998 0z" fill="rgba(255, 255, 255, .025)"></path><path d="M0 1500L631.18 1500L0 1204.45z" fill="rgba(0, 0, 0, .1)"></path><path d="M0 1204.45L631.18 1500L909.68 1500L0 944.1z" fill="rgba(0, 0, 0, .075)"></path><path d="M0 944.0999999999999L909.68 1500L1398.44 1500L0 943.93z" fill="rgba(0, 0, 0, .05)"></path><path d="M0 943.93L1398.44 1500L1776.3000000000002 1500L0 890.41z" fill="rgba(0, 0, 0, .025)"></path></g><defs><mask id="SvgjsMask1390"><rect width="2000" height="1500" fill="#ffffff"></rect></mask><linearGradient x1="6.25%" y1="-8.33%" x2="93.75%" y2="108.33%" gradientUnits="userSpaceOnUse" id="SvgjsLinearGradient1391"><stop stop-color="rgba(18, 22, 25, 1)" offset="0"></stop><stop stop-color="rgba(45, 71, 57, 1)" offset="1"></stop></linearGradient></defs></svg>